<svg width="346" height="11" viewBox="0 0 346 11" fill="none" xmlns="http://www.w3.org/2000/svg">
<path d="M332.012 0.479357L333.207 5.24914C333.219 5.30817 333.219 5.36901 333.207 5.42804L332.012 9.92351C331.992 10.0018 331.997 10.0842 332.025 10.16C332.052 10.2357 332.102 10.3015 332.168 10.3489C332.233 10.3963 332.311 10.4231 332.392 10.4259C332.473 10.4287 332.553 10.4074 332.621 10.3647L336.135 8.44489C337.347 7.78668 338.641 7.29341 339.984 6.9782L345.195 5.78576C345.28 5.76435 345.355 5.71514 345.409 5.64602C345.463 5.57689 345.493 5.4918 345.493 5.40417C345.493 5.31653 345.463 5.23136 345.409 5.16224C345.355 5.09312 345.28 5.04398 345.195 5.02257L339.123 3.22197C338.348 2.99561 337.599 2.68787 336.888 2.30383L332.645 0.0738933C332.579 0.027518 332.501 0.00182218 332.42 9.32652e-05C332.339 -0.00163565 332.26 0.0207078 332.192 0.0642134C332.124 0.107719 332.071 0.170479 332.038 0.24442C332.006 0.31836 331.997 0.400134 332.012 0.479357Z" fill="#AC6231"/>
<path d="M3.03492 5.0623C2.53399 4.50605 1.91846 4.13946 1.2593 4.0048C1.09838 3.99776 0.937953 4.03101 0.787307 4.1026C0.63666 4.1742 0.498784 4.28272 0.381665 4.4219C0.264546 4.56107 0.17051 4.72815 0.105001 4.91343C0.0394924 5.0987 0.00381965 5.2985 3.52365e-05 5.50126C0.00328135 5.70448 0.0385635 5.90485 0.103838 6.09074C0.169112 6.27662 0.263074 6.4443 0.380256 6.58403C0.497437 6.72376 0.635504 6.83278 0.786425 6.90469C0.937345 6.97661 1.09811 7.01001 1.25937 7.00295C1.94605 6.90635 2.59024 6.53579 3.09791 5.94537L345 5.93681L345 5.10134L3.03492 5.0623Z" fill="#AC6231"/>
</svg>
